<svg width="111" height="152" viewBox="0 0 111 152" fill="none" xmlns="http://www.w3.org/2000/svg">
<path d="M45 39.1957C45 36.7104 47.0147 34.6957 49.5 34.6957C51.9853 34.6957 54 36.7104 54 39.1957V50.1957C54 52.681 51.9853 54.6957 49.5 54.6957C47.0147 54.6957 45 52.681 45 50.1957V39.1957Z" fill="black"/>
<path d="M50.128 35.212C54.2931 15.4287 72.9435 2.15311 93.0001 4.69534C91.8537 22.1779 77.9883 36.1362 60.5138 37.3994L49.4999 38.1956L50.128 35.212Z" fill="#A4CC38"/>
<path d="M19 14.6957H24C37.2548 14.6957 48 25.4408 48 38.6957H43C29.7452 38.6957 19 27.9505 19 14.6957Z" fill="#A4CC38"/>
<path fill-rule="evenodd" clip-rule="evenodd" d="M111 96.1957C111 126.847 86.1518 151.696 55.5 151.696C24.8482 151.696 0 126.847 0 96.1957C0 65.5439 24.8482 40.6957 55.5 40.6957C86.1518 40.6957 111 65.5439 111 96.1957ZM105 95.6957C105 118.892 85.7482 137.696 62 137.696C40.0456 137.696 21.9341 121.625 19.3232 100.871C19.1101 99.3419 19 97.7813 19 96.1957C19 96.1165 19.0003 96.0374 19.0008 95.9583C19.0003 95.8708 19 95.7833 19 95.6957C19 72.4997 38.2518 53.6957 62 53.6957C85.7482 53.6957 105 72.4997 105 95.6957Z" fill="#FFC907"/>
<path fill-rule="evenodd" clip-rule="evenodd" d="M62 137.696C85.7482 137.696 105 118.892 105 95.6957C105 72.4997 85.7482 53.6957 62 53.6957C38.2518 53.6957 19 72.4997 19 95.6957C19 95.7828 19.0003 95.8699 19.0008 95.9569C19.1342 75.4282 35.6257 58.8282 55.9499 58.8282C76.3567 58.8282 92.8997 75.5636 92.8997 96.2077C92.8997 116.852 76.3567 133.587 55.9499 133.587C39.5768 133.587 25.691 122.814 20.8412 107.892C26.1915 125.14 42.5946 137.696 62 137.696Z" fill="#C55B32"/>
</svg>
